# Blender v2.79 (sub 0) OBJ File: 'canon.blend'
# www.blender.org
mtllib canon.mtl
o Cube
v 1.000000 -1.000000 1.000000
v -1.000000 -1.000000 1.000000
v -1.000000 -1.000000 -1.000000
v 1.000000 -1.000000 -1.000000
v 0.999999 1.000000 1.000000
v -1.000001 1.000000 0.999999
v -1.000000 1.000000 -1.000000
v 1.000000 1.000000 -1.000000
v 0.804825 1.026200 -0.804826
v 0.804825 1.026200 0.804824
v 0.789361 0.869187 -0.804826
v 0.789361 0.869187 0.804824
v 0.743562 0.718207 -0.804826
v 0.743562 0.718207 0.804824
v 0.669188 0.579063 -0.804826
v 0.669188 0.579063 0.804824
v 0.569097 0.457103 -0.804826
v 0.569097 0.457103 0.804824
v 0.447137 0.357013 -0.804826
v 0.447137 0.357012 0.804824
v 0.307993 0.282639 -0.804826
v 0.307993 0.282639 0.804824
v 0.157014 0.236840 -0.804826
v 0.157014 0.236839 0.804824
v 0.000000 0.221375 -0.804826
v 0.000000 0.221375 0.804824
v -0.157013 0.236840 -0.804826
v -0.157013 0.236839 0.804824
v -0.307993 0.282639 -0.804826
v -0.307993 0.282639 0.804824
v -0.447137 0.357013 -0.804826
v -0.447137 0.357012 0.804824
v -0.569097 0.457103 -0.804826
v -0.569097 0.457103 0.804824
v -0.669188 0.579063 -0.804826
v -0.669188 0.579063 0.804824
v -0.743562 0.718207 -0.804826
v -0.743562 0.718207 0.804824
v -0.789361 0.869187 -0.804826
v -0.789361 0.869187 0.804824
v -0.804825 1.026201 -0.804826
v -0.804825 1.026200 0.804824
v -0.789361 1.183214 -0.804826
v -0.789361 1.183214 0.804824
v -0.743561 1.334194 -0.804826
v -0.743561 1.334194 0.804824
v -0.669187 1.473338 -0.804826
v -0.669187 1.473338 0.804824
v -0.569097 1.595298 -0.804826
v -0.569097 1.595298 0.804824
v -0.447136 1.695388 -0.804826
v -0.447136 1.695388 0.804824
v -0.307993 1.769762 -0.804826
v -0.307993 1.769762 0.804824
v -0.157013 1.815561 -0.804826
v -0.157013 1.815561 0.804824
v 0.000001 1.831026 -0.804826
v 0.000001 1.831025 0.804824
v 0.157015 1.815561 -0.804826
v 0.157015 1.815561 0.804824
v 0.307994 1.769762 -0.804826
v 0.307994 1.769762 0.804824
v 0.447138 1.695388 -0.804826
v 0.447138 1.695387 0.804824
v 0.569098 1.595297 -0.804826
v 0.569098 1.595297 0.804824
v 0.669188 1.473336 -0.804826
v 0.669188 1.473336 0.804824
v 0.743562 1.334193 -0.804826
v 0.743562 1.334192 0.804824
v 0.789361 1.183213 -0.804826
v 0.789361 1.183213 0.804824
v 0.142390 1.214161 0.142390
v -0.142390 1.214161 0.142390
v -0.142390 1.214161 -0.142390
v 0.142390 1.214161 -0.142390
v 0.142390 3.368300 0.142390
v -0.142390 3.368300 0.142390
v -0.142390 3.368300 -0.142390
v 0.142390 3.368300 -0.142390
v 0.341860 1.026200 0.924628
v 0.335291 0.959507 0.924628
v 0.315838 0.895376 0.924628
v 0.284246 0.836273 0.924628
v 0.241732 0.784469 0.924628
v 0.189927 0.741954 0.924628
v 0.130824 0.710363 0.924628
v 0.066694 0.690909 0.924628
v 0.000000 0.684340 0.924628
v -0.066693 0.690909 0.924628
v -0.130824 0.710363 0.924628
v -0.189927 0.741954 0.924628
v -0.241731 0.784469 0.924628
v -0.284246 0.836273 0.924628
v -0.315837 0.895376 0.924628
v -0.335291 0.959507 0.924628
v -0.341860 1.026200 0.924628
v -0.335291 1.092894 0.924628
v -0.315837 1.157024 0.924628
v -0.284246 1.216128 0.924628
v -0.241731 1.267932 0.924628
v -0.189927 1.310447 0.924628
v -0.130824 1.342038 0.924628
v -0.066693 1.361491 0.924628
v 0.000001 1.368060 0.924628
v 0.066694 1.361491 0.924628
v 0.130825 1.342037 0.924628
v 0.189928 1.310446 0.924628
v 0.241732 1.267931 0.924628
v 0.284247 1.216127 0.924628
v 0.315838 1.157024 0.924628
v 0.335291 1.092893 0.924628
v 0.335291 0.959507 0.480121
v 0.341860 1.026200 0.480121
v 0.315838 0.895376 0.480121
v 0.284246 0.836273 0.480121
v 0.241732 0.784469 0.480121
v 0.189927 0.741954 0.480121
v 0.130824 0.710363 0.480121
v 0.066694 0.690909 0.480121
v 0.000000 0.684340 0.480121
v -0.066693 0.690909 0.480121
v -0.130824 0.710363 0.480121
v -0.189927 0.741954 0.480121
v -0.241731 0.784469 0.480121
v -0.284246 0.836273 0.480121
v -0.315837 0.895376 0.480121
v -0.335291 0.959507 0.480121
v -0.341860 1.026200 0.480121
v -0.335291 1.092894 0.480121
v -0.315837 1.157024 0.480121
v -0.284246 1.216128 0.480121
v -0.241731 1.267932 0.480121
v -0.189927 1.310447 0.480121
v -0.130824 1.342038 0.480121
v -0.066693 1.361491 0.480121
v 0.000001 1.368060 0.480121
v 0.066694 1.361491 0.480121
v 0.130825 1.342037 0.480121
v 0.189928 1.310446 0.480121
v 0.241732 1.267931 0.480121
v 0.284247 1.216127 0.480121
v 0.315838 1.157024 0.480121
v 0.335292 1.092893 0.480121
vt 0.222215 0.084265
vt 0.009607 0.402455
vt 0.402456 0.990393
vt 0.084266 0.777786
vt 0.402456 0.990393
vt 0.597545 0.009607
vt 0.000000 1.000000
vt 0.000000 0.000000
vt 1.000000 0.000000
vt 1.000000 1.000000
vt 0.222215 0.915735
vt 0.222215 0.915735
vt 0.308659 0.961940
vt 0.308659 0.961940
vt 1.000000 1.000000
vt 0.000000 1.000000
vt 0.000000 0.000000
vt 1.000000 0.000000
vt 0.000000 1.000000
vt 0.000000 0.000000
vt 1.000000 0.000000
vt 1.000000 1.000000
vt 0.000000 1.000000
vt 0.000000 0.000000
vt 1.000000 0.000000
vt 1.000000 1.000000
vt 0.000000 1.000000
vt 1.000000 0.000000
vt 1.000000 1.000000
vt 0.000000 1.000000
vt 0.000000 0.000000
vt 1.000000 0.000000
vt 1.000000 1.000000
vt 0.000000 1.000000
vt 0.000000 0.000000
vt 1.000000 0.000000
vt 1.000000 1.000000
vt 0.691342 0.038060
vt 0.691342 0.038060
vt 0.597545 0.009607
vt 0.597545 0.990393
vt 0.597545 0.990393
vt 0.691342 0.961940
vt 0.691342 0.961940
vt 0.000000 1.000000
vt 0.000000 0.000000
vt 1.000000 0.000000
vt 1.000000 1.000000
vt 0.000000 1.000000
vt 0.000000 0.000000
vt 1.000000 0.000000
vt 1.000000 1.000000
vt 0.000000 1.000000
vt 0.000000 0.000000
vt 1.000000 0.000000
vt 1.000000 1.000000
vt 1.000000 1.000000
vt 0.000000 1.000000
vt 0.000000 0.000000
vt 1.000000 0.000000
vt 0.000000 1.000000
vt 0.000000 0.000000
vt 1.000000 0.000000
vt 1.000000 1.000000
vt 0.853553 0.853553
vt 0.853553 0.853553
vt 0.915735 0.777785
vt 0.915735 0.777785
vt 0.000000 1.000000
vt 0.000000 0.000000
vt 1.000000 0.000000
vt 1.000000 1.000000
vt 0.000000 1.000000
vt 0.000000 0.000000
vt 1.000000 0.000000
vt 1.000000 1.000000
vt 0.000000 1.000000
vt 0.000000 0.000000
vt 1.000000 0.000000
vt 1.000000 1.000000
vt 0.000000 1.000000
vt 0.000000 0.000000
vt 1.000000 0.000000
vt 1.000000 1.000000
vt 1.000000 1.000000
vt 0.000000 1.000000
vt 0.000000 0.000000
vt 1.000000 0.000000
vt 0.000000 1.000000
vt 0.000000 0.000000
vt 1.000000 0.000000
vt 1.000000 1.000000
vt 1.000000 0.000000
vt 1.000000 1.000000
vt 0.000000 1.000000
vt 0.000000 0.000000
vt 1.000000 0.000000
vt 1.000000 1.000000
vt 0.000000 1.000000
vt 1.000000 0.000000
vt 1.000000 1.000000
vt 0.038060 0.691342
vt 0.038060 0.691342
vt 0.084266 0.777786
vt 1.000000 1.000000
vt 0.000000 1.000000
vt 0.000000 0.000000
vt 1.000000 0.000000
vt 0.000000 1.000000
vt 0.000000 0.000000
vt 1.000000 0.000000
vt 1.000000 1.000000
vt 0.000000 1.000000
vt 0.000000 0.000000
vt 1.000000 0.000000
vt 1.000000 1.000000
vt 0.000000 1.000000
vt 0.000000 0.000000
vt 1.000000 0.000000
vt 1.000000 1.000000
vt 0.000000 1.000000
vt 0.000000 0.000000
vt 1.000000 0.000000
vt 1.000000 1.000000
vt 0.402456 0.990393
vt 0.000000 1.000000
vt 0.000000 0.000000
vt 1.000000 0.000000
vt 1.000000 1.000000
vt 1.000000 1.000000
vt 0.000000 1.000000
vt 0.000000 0.000000
vt 1.000000 0.000000
vt 0.597545 0.009607
vt 0.777785 0.915735
vt 1.000000 1.000000
vt 0.000000 1.000000
vt 0.000000 0.000000
vt 1.000000 0.000000
vt 0.500000 1.000000
vt 0.597545 0.990393
vt 0.691342 0.961940
vt 0.853553 0.853553
vt 0.915735 0.777785
vt 0.961940 0.691342
vt 0.990393 0.597545
vt 1.000000 0.500000
vt 0.990393 0.402455
vt 0.961940 0.308658
vt 0.915735 0.222215
vt 0.853553 0.146447
vt 0.777785 0.084265
vt 0.691342 0.038060
vt 0.500000 0.000000
vt 0.402455 0.009607
vt 0.308658 0.038060
vt 0.146446 0.146447
vt 0.084265 0.222215
vt 0.038060 0.308659
vt 0.000000 0.500000
vt 0.009607 0.597546
vt 0.038060 0.691342
vt 0.084266 0.777786
vt 0.146447 0.853554
vt 0.222215 0.915735
vt 0.308659 0.961940
vt 0.000000 1.000000
vt 0.000000 0.000000
vt 1.000000 0.000000
vt 1.000000 1.000000
vt 0.000000 1.000000
vt 0.000000 0.000000
vt 1.000000 0.000000
vt 1.000000 1.000000
vt 0.000000 1.000000
vt 0.000000 0.000000
vt 1.000000 0.000000
vt 1.000000 1.000000
vt 0.402456 0.990393
vt 0.500000 1.000000
vt 0.597545 0.990393
vt 0.691342 0.961940
vt 0.777785 0.915735
vt 0.853553 0.853553
vt 0.990393 0.597545
vt 0.915735 0.777785
vt 0.961940 0.691342
vt 1.000000 0.500000
vt 0.990393 0.402455
vt 0.961940 0.308658
vt 0.915735 0.222215
vt 0.853553 0.146447
vt 0.597545 0.009607
vt 0.777785 0.084265
vt 0.691342 0.038060
vt 0.500000 0.000000
vt 0.402455 0.009607
vt 0.308658 0.038060
vt 0.222215 0.084265
vt 0.146446 0.146447
vt 0.084265 0.222215
vt 0.038060 0.308659
vt 0.009607 0.402455
vt 0.000000 0.500000
vt 0.009607 0.597546
vt 0.038060 0.691342
vt 0.084266 0.777786
vt 0.146447 0.853554
vt 0.222215 0.915735
vt 0.308659 0.961940
vt 0.000000 1.000000
vt 0.000000 0.000000
vt 1.000000 0.000000
vt 0.000000 1.000000
vt 0.000000 0.000000
vt 1.000000 0.000000
vt 1.000000 1.000000
vt 0.000000 1.000000
vt 0.000000 0.000000
vt 1.000000 0.000000
vt 0.000000 1.000000
vt 1.000000 0.000000
vt 1.000000 1.000000
vt 0.000000 1.000000
vt 0.000000 0.000000
vt 1.000000 0.000000
vt 1.000000 1.000000
vt 0.000000 0.000000
vt 1.000000 0.000000
vt 1.000000 1.000000
vt 0.500000 1.000000
vt 0.146447 0.853554
vt 0.009607 0.597546
vt 0.000000 0.500000
vt 0.009607 0.402455
vt 0.038060 0.308659
vt 0.084265 0.222215
vt 0.146446 0.146447
vt 0.222215 0.084265
vt 0.308658 0.038060
vt 0.402455 0.009607
vt 0.500000 0.000000
vt 0.777785 0.084265
vt 0.853553 0.146447
vt 0.915735 0.222215
vt 0.961940 0.308658
vt 0.990393 0.402455
vt 1.000000 0.500000
vt 0.990393 0.597545
vt 0.961940 0.691342
vt 0.777785 0.915735
vt 0.500000 1.000000
vt 0.777785 0.915735
vt 0.961940 0.691342
vt 0.990393 0.597545
vt 1.000000 0.500000
vt 0.990393 0.402455
vt 0.961940 0.308658
vt 0.915735 0.222215
vt 0.853553 0.146447
vt 0.777785 0.084265
vt 0.500000 0.000000
vt 0.402455 0.009607
vt 0.308658 0.038060
vt 0.222215 0.084265
vt 0.146446 0.146447
vt 0.084265 0.222215
vt 0.038060 0.308659
vt 0.009607 0.402455
vt 0.000000 0.500000
vt 0.009607 0.597546
vt 0.146447 0.853554
vt 0.000000 1.000000
vt 0.000000 0.000000
vt 1.000000 0.000000
vt 1.000000 1.000000
vt 0.000000 1.000000
vt 0.000000 0.000000
vt 1.000000 0.000000
vt 1.000000 1.000000
vt 0.000000 1.000000
vt 0.000000 0.000000
vt 1.000000 0.000000
vt 1.000000 1.000000
vt 0.000000 1.000000
vt 0.000000 0.000000
vt 1.000000 0.000000
vt 1.000000 1.000000
vt 0.000000 1.000000
vt 0.000000 0.000000
vt 1.000000 0.000000
vt 1.000000 1.000000
vt 0.000000 1.000000
vt 0.000000 0.000000
vt 1.000000 0.000000
vt 1.000000 1.000000
vn 0.0000 -0.0000 1.0000
vn 1.0000 0.0000 0.0000
vn -0.7730 0.6344 -0.0000
vn 0.4714 -0.8819 -0.0000
vn 0.2903 -0.9569 -0.0000
vn 0.9569 -0.2903 -0.0000
vn 0.0000 1.0000 0.0000
vn 0.0000 -1.0000 -0.0000
vn 0.9952 0.0980 0.0000
vn 0.8819 -0.4714 0.0000
vn -0.9952 -0.0980 -0.0000
vn 0.6344 0.7730 0.0000
vn -0.6344 -0.7730 -0.0000
vn -0.0980 -0.9952 -0.0000
vn -0.8819 -0.4714 -0.0000
vn 0.0980 -0.9952 -0.0000
vn -0.7730 -0.6344 -0.0000
vn -0.2903 0.9569 0.0000
vn 0.6344 -0.7730 -0.0000
vn 0.8819 0.4714 0.0000
vn 0.0000 -0.0000 -1.0000
vn -1.0000 -0.0000 -0.0000
vn -0.0980 0.9952 0.0000
vn 0.9952 -0.0980 -0.0000
vn 0.4714 0.8819 0.0000
vn 0.2903 0.9569 0.0000
vn -0.2903 -0.9569 -0.0000
vn -0.8819 0.4714 -0.0000
vn 0.0980 0.9952 0.0000
vn -0.4714 -0.8819 -0.0000
vn -0.9569 0.2903 0.0000
vn 0.9569 0.2903 0.0000
vn 0.7730 0.6344 0.0000
vn -0.4714 0.8819 0.0000
vn -0.9569 -0.2903 -0.0000
vn -0.6344 0.7730 -0.0000
vn 0.7730 -0.6344 0.0000
vn -0.9952 0.0980 -0.0000
usemtl Material
s off
f 38/1/1 30/2/1 14/3/1
f 119/4/1 115/5/1 131/6/1
f 8/7/2 5/8/2 1/9/2 4/10/2
f 117/11/3 85/12/3 84/13/3 116/14/3
f 22/15/4 21/16/4 19/17/4 20/18/4
f 23/19/5 21/20/5 22/21/5 24/22/5
f 13/23/6 11/24/6 12/25/6 14/26/6
f 6/27/7 5/8/7 8/28/7 7/29/7
f 76/30/8 73/31/8 74/32/8 75/33/8
f 9/34/9 71/35/9 72/36/9 10/37/9
f 132/38/10 100/39/10 99/40/10 131/6/10
f 114/41/11 81/42/11 112/43/11 144/44/11
f 65/45/12 63/46/12 64/47/12 66/48/12
f 33/49/13 31/50/13 32/51/13 34/52/13
f 27/53/14 25/54/14 26/55/14 28/56/14
f 38/57/15 37/58/15 35/59/15 36/60/15
f 25/61/16 23/62/16 24/63/16 26/64/16
f 142/65/17 110/66/17 109/67/17 141/68/17
f 55/69/18 53/70/18 54/71/18 56/72/18
f 19/73/19 17/74/19 18/75/19 20/76/19
f 69/77/20 67/78/20 68/79/20 70/80/20
f 2/81/1 1/82/1 5/83/1 6/84/1
f 8/85/21 4/86/21 3/87/21 7/88/21
f 75/89/22 74/90/22 78/91/22 79/92/22
f 4/86/8 1/82/8 2/93/8 3/94/8
f 35/95/17 33/96/17 34/97/17 36/98/17
f 74/99/1 73/31/1 77/100/1 78/101/1
f 120/102/18 88/103/18 87/104/18 119/4/18
f 58/105/23 57/106/23 55/107/23 56/108/23
f 11/109/24 9/110/24 10/111/24 12/112/24
f 63/113/25 61/114/25 62/115/25 64/116/25
f 61/117/26 59/118/26 60/119/26 62/120/26
f 29/121/27 27/122/27 28/123/27 30/124/27
f 116/14/28 84/13/28 83/125/28 115/5/28
f 59/126/29 57/127/29 58/128/29 60/129/29
f 32/130/30 31/131/30 29/132/30 30/133/30
f 46/134/1 38/1/1 14/3/1 70/135/1
f 48/136/28 47/137/28 45/138/28 46/139/28
f 14/3/1 12/140/1 10/141/1
f 10/141/1 72/142/1 14/3/1
f 72/142/1 70/135/1 14/3/1
f 70/135/1 68/143/1 66/144/1
f 66/144/1 64/145/1 70/135/1
f 64/145/1 62/146/1 70/135/1
f 62/146/1 60/147/1 58/148/1
f 58/148/1 56/149/1 54/150/1
f 54/150/1 52/151/1 46/134/1
f 52/151/1 50/152/1 46/134/1
f 50/152/1 48/153/1 46/134/1
f 46/134/1 44/154/1 42/155/1
f 42/155/1 40/156/1 46/134/1
f 40/156/1 38/1/1 46/134/1
f 38/1/1 36/157/1 34/158/1
f 34/158/1 32/159/1 30/2/1
f 30/2/1 28/160/1 26/161/1
f 26/161/1 24/162/1 22/163/1
f 22/163/1 20/164/1 18/165/1
f 18/165/1 16/166/1 14/3/1
f 62/146/1 58/148/1 46/134/1
f 58/148/1 54/150/1 46/134/1
f 38/1/1 34/158/1 30/2/1
f 30/2/1 26/161/1 22/163/1
f 22/163/1 18/165/1 30/2/1
f 18/165/1 14/3/1 30/2/1
f 45/167/31 43/168/31 44/169/31 46/170/31
f 70/135/1 62/146/1 46/134/1
f 41/171/11 39/172/11 40/173/11 42/174/11
f 71/175/32 69/176/32 70/177/32 72/178/32
f 71/179/21 9/180/21 11/181/21
f 11/181/21 13/182/21 15/183/21
f 15/183/21 17/184/21 23/185/21
f 17/184/21 19/186/21 23/185/21
f 19/186/21 21/187/21 23/185/21
f 23/185/21 25/188/21 27/189/21
f 27/189/21 29/190/21 31/191/21
f 31/191/21 33/192/21 39/193/21
f 33/192/21 35/194/21 39/193/21
f 35/194/21 37/195/21 39/193/21
f 39/193/21 41/196/21 43/197/21
f 43/197/21 45/198/21 39/193/21
f 45/198/21 47/199/21 39/193/21
f 47/199/21 49/200/21 51/201/21
f 51/201/21 53/202/21 47/199/21
f 53/202/21 55/203/21 47/199/21
f 55/203/21 57/204/21 59/205/21
f 59/205/21 61/206/21 63/207/21
f 63/207/21 65/208/21 71/179/21
f 65/208/21 67/209/21 71/179/21
f 67/209/21 69/210/21 71/179/21
f 71/179/21 11/181/21 23/185/21
f 11/181/21 15/183/21 23/185/21
f 23/185/21 27/189/21 31/191/21
f 55/203/21 59/205/21 71/179/21
f 59/205/21 63/207/21 71/179/21
f 23/185/21 31/191/21 39/193/21
f 47/199/21 55/203/21 71/179/21
f 78/211/7 77/212/7 80/213/7 79/92/7
f 67/214/33 65/215/33 66/216/33 68/217/33
f 3/218/22 2/219/22 6/220/22 7/29/22
f 80/221/2 77/212/2 73/222/2 76/223/2
f 53/224/34 51/225/34 52/226/34 54/227/34
f 76/30/21 75/228/21 79/229/21 80/230/21
f 81/42/21 82/231/21 85/12/21
f 82/231/21 83/125/21 85/12/21
f 83/125/21 84/13/21 85/12/21
f 85/12/21 86/232/21 87/104/21
f 87/104/21 88/103/21 89/233/21
f 89/233/21 90/234/21 91/235/21
f 91/235/21 92/236/21 93/237/21
f 93/237/21 94/238/21 95/239/21
f 95/239/21 96/240/21 93/237/21
f 96/240/21 97/241/21 93/237/21
f 97/241/21 98/242/21 99/40/21
f 99/40/21 100/39/21 101/243/21
f 101/243/21 102/244/21 103/245/21
f 103/245/21 104/246/21 105/247/21
f 105/247/21 106/248/21 107/249/21
f 107/249/21 108/250/21 105/247/21
f 108/250/21 109/67/21 105/247/21
f 109/67/21 110/66/21 111/251/21
f 111/251/21 112/43/21 109/67/21
f 112/43/21 81/42/21 109/67/21
f 85/12/21 87/104/21 81/42/21
f 87/104/21 89/233/21 81/42/21
f 89/233/21 91/235/21 93/237/21
f 97/241/21 99/40/21 105/247/21
f 99/40/21 101/243/21 105/247/21
f 101/243/21 103/245/21 105/247/21
f 89/233/21 93/237/21 81/42/21
f 71/179/21 23/185/21 39/193/21 47/199/21
f 105/247/21 109/67/21 81/42/21
f 115/5/1 113/252/1 143/253/1
f 113/252/1 114/41/1 143/253/1
f 114/41/1 144/44/1 143/253/1
f 143/253/1 142/65/1 141/68/1
f 141/68/1 140/254/1 143/253/1
f 140/254/1 139/255/1 143/253/1
f 139/255/1 138/256/1 137/257/1
f 137/257/1 136/258/1 135/259/1
f 135/259/1 134/260/1 133/261/1
f 133/261/1 132/38/1 131/6/1
f 131/6/1 130/262/1 129/263/1
f 129/263/1 128/264/1 131/6/1
f 128/264/1 127/265/1 131/6/1
f 127/265/1 126/266/1 125/267/1
f 125/267/1 124/268/1 123/269/1
f 123/269/1 122/270/1 121/271/1
f 121/271/1 120/102/1 119/4/1
f 119/4/1 118/272/1 117/11/1
f 117/11/1 116/14/1 115/5/1
f 139/255/1 137/257/1 131/6/1
f 137/257/1 135/259/1 131/6/1
f 135/259/1 133/261/1 131/6/1
f 127/265/1 125/267/1 131/6/1
f 125/267/1 123/269/1 131/6/1
f 123/269/1 121/271/1 119/4/1
f 119/4/1 117/11/1 115/5/1
f 115/5/1 143/253/1 131/6/1
f 143/253/1 139/255/1 131/6/1
f 123/269/1 119/4/1 131/6/1
f 130/262/24 98/242/24 97/241/24 129/263/24
f 128/264/32 96/240/32 95/239/32 127/265/32
f 123/269/26 91/235/26 90/234/26 122/270/26
f 129/263/9 97/241/9 96/240/9 128/264/9
f 143/253/35 144/44/35 112/43/35 111/251/35
f 122/270/29 90/234/29 89/233/29 121/271/29
f 118/272/36 86/232/36 85/12/36 117/11/36
f 49/273/3 47/274/3 48/275/3 50/276/3
f 141/68/13 109/67/13 108/250/13 140/254/13
f 143/253/15 111/251/15 110/66/15 142/65/15
f 131/6/6 99/40/6 98/242/6 130/262/6
f 132/38/37 133/261/37 101/243/37 100/39/37
f 113/252/38 82/231/38 81/42/38 114/41/38
f 39/277/35 37/278/35 38/279/35 40/280/35
f 17/281/37 15/282/37 16/283/37 18/284/37
f 15/285/10 13/286/10 14/287/10 16/288/10
f 135/259/4 103/245/4 102/244/4 134/260/4
f 119/4/34 87/104/34 86/232/34 118/272/34
f 51/289/36 49/290/36 50/291/36 52/292/36
f 134/260/19 102/244/19 101/243/19 133/261/19
f 139/255/30 140/254/30 108/250/30 107/249/30
f 121/271/23 89/233/23 88/103/23 120/102/23
f 43/293/38 41/294/38 42/295/38 44/296/38
f 136/258/5 104/246/5 103/245/5 135/259/5
f 115/5/31 83/125/31 82/231/31 113/252/31
f 137/257/16 105/247/16 104/246/16 136/258/16
f 124/268/25 92/236/25 91/235/25 123/269/25
f 138/256/14 106/248/14 105/247/14 137/257/14
f 125/267/12 93/237/12 92/236/12 124/268/12
f 139/255/27 107/249/27 106/248/27 138/256/27
f 97/241/21 105/247/21 81/42/21 93/237/21
f 126/266/33 94/238/33 93/237/33 125/267/33
f 127/265/20 95/239/20 94/238/20 126/266/20
