# Blender v2.79 (sub 0) OBJ File: 'groundSurface.blend'
# www.blender.org
mtllib groundSurface.mtl
o Cube.000_Cube.002
v -0.500000 0.000000 0.000000
v 0.500000 0.000000 0.000000
v 0.500000 -0.252879 0.000000
v -0.500000 -0.252879 0.000000
v 0.396848 -0.202629 -0.000000
v 0.298344 -0.247065 -0.000000
v 0.113828 -0.156013 0.000000
v -0.385405 -0.265126 0.000000
vn -0.0000 -0.0000 1.0000
usemtl Material.001
s off
f 8//1 7//1 1//1 4//1
f 7//1 6//1 5//1
f 5//1 3//1 2//1
f 1//1 7//1 5//1 2//1
o Cube.001
v -0.500000 -1.000000 0.000000
v 0.500000 -1.000000 0.000000
v 0.500000 -0.252879 0.000000
v -0.500000 -0.252879 0.000000
v 0.396848 -0.202629 -0.000000
v 0.298344 -0.247065 -0.000000
v 0.113828 -0.156013 0.000000
v -0.385405 -0.265126 0.000000
vn -0.0000 0.0000 1.0000
usemtl Material.002
s off
f 10//2 11//2 14//2
f 11//2 13//2 14//2
f 14//2 15//2 16//2
f 16//2 12//2 9//2
f 14//2 16//2 9//2 10//2
