# Blender v2.79 (sub 0) OBJ File: 'helicopter.blend'
# www.blender.org
mtllib helicopter.mtl
o Cube
v 1.000000 -1.000000 -1.000000
v 1.000000 -1.000000 1.000000
v -1.000000 -1.000000 1.000000
v -1.000000 -1.000000 -1.000000
v 1.000000 1.000000 -1.000000
v 0.999999 1.000000 1.000001
v -1.000000 1.000000 1.000000
v -1.000000 1.000000 -1.000000
v -0.845655 0.440806 -0.252099
v -0.845655 0.440806 0.252099
v -2.845655 0.440806 0.252099
v -2.845655 0.440806 -0.252099
v -0.845655 0.945005 -0.252099
v -0.845656 0.945005 0.252099
v -2.845655 0.945005 0.252099
v -2.845655 0.945005 -0.252099
v -2.677586 0.596899 -0.108155
v -2.677586 0.596899 0.108155
v -3.145524 1.277110 0.108155
v -3.145523 1.277110 -0.108155
v -2.262188 0.882663 -0.108155
v -2.262189 0.882663 0.108155
v -2.730126 1.562874 0.108155
v -2.730126 1.562874 -0.108155
v 0.189688 0.973765 -0.189688
v 0.189688 0.973765 0.189688
v -0.189688 0.973765 0.189688
v -0.189688 0.973765 -0.189688
v 0.189688 1.642230 -0.189688
v 0.189688 1.642230 0.189688
v -0.189688 1.642230 0.189688
v -0.189688 1.642230 -0.189688
v 1.956172 1.338736 -0.130600
v 1.956172 1.338736 0.130600
v -1.956172 1.338736 0.130600
v -1.956170 1.338736 -0.130600
v 1.956172 1.482136 -0.130600
v 1.956170 1.482136 0.130600
v -1.956172 1.482136 0.130600
v -1.956171 1.482136 -0.130600
v 1.000000 -0.436934 -1.000000
v 1.000000 0.606507 -1.000000
v 1.000000 -0.254812 1.000000
v 1.000000 0.623864 1.000000
v -0.266097 0.616697 1.000000
v -0.362501 -0.323878 1.000000
v 0.055213 0.605103 -1.000000
v 0.037964 -0.478879 -1.000000
vt 0.000000 1.000000
vt 0.000000 0.000000
vt 1.000000 0.000000
vt 1.000000 1.000000
vt 1.000000 1.000000
vt 0.000000 1.000000
vt 0.000000 0.000000
vt 1.000000 0.000000
vt 0.803254 0.000000
vt 0.811932 1.000000
vt 0.372594 1.000000
vt 0.281533 0.000000
vt 0.338061 0.681250
vt 0.808349 0.633048
vt 1.000000 1.000000
vt 0.000000 1.000000
vt 0.000000 0.000000
vt 0.372594 0.000000
vt 0.000000 0.000000
vt 1.000000 0.000000
vt 1.000000 1.000000
vt 0.000000 1.000000
vt 1.000000 0.000000
vt 1.000000 1.000000
vt 0.000000 1.000000
vt 0.000000 0.000000
vt 1.000000 0.000000
vt 1.000000 1.000000
vt 0.000000 1.000000
vt 0.000000 0.000000
vt 1.000000 0.000000
vt 1.000000 1.000000
vt 0.000000 1.000000
vt 0.000000 0.000000
vt 1.000000 0.000000
vt 1.000000 1.000000
vt 0.000000 0.000000
vt 1.000000 0.000000
vt 1.000000 1.000000
vt 0.000000 1.000000
vt 0.000000 0.000000
vt 1.000000 0.000000
vt 1.000000 1.000000
vt 0.000000 1.000000
vt 0.000000 0.000000
vt 1.000000 0.000000
vt 1.000000 1.000000
vt 0.000000 1.000000
vt 1.000000 0.000000
vt 1.000000 1.000000
vt 0.000000 1.000000
vt 0.000000 0.000000
vt 1.000000 0.000000
vt 0.000000 1.000000
vt 1.000000 0.000000
vt 1.000000 1.000000
vt 1.000000 1.000000
vt 0.000000 1.000000
vt 1.000000 0.000000
vt 0.000000 1.000000
vt 0.000000 0.000000
vt 1.000000 0.000000
vt 1.000000 1.000000
vt 0.000000 1.000000
vt 0.000000 0.000000
vt 1.000000 0.000000
vt 0.000000 1.000000
vt 1.000000 0.000000
vt 1.000000 1.000000
vt 1.000000 1.000000
vt 0.000000 0.000000
vt 1.000000 0.000000
vt 0.000000 1.000000
vt 1.000000 0.000000
vt 1.000000 1.000000
vt 0.000000 1.000000
vt 0.000000 0.000000
vt 1.000000 0.000000
vt 0.000000 1.000000
vt 0.000000 0.000000
vt 1.000000 0.000000
vt 1.000000 1.000000
vt 0.000000 0.000000
vt 1.000000 0.000000
vt 0.000000 1.000000
vt 0.000000 0.000000
vt 1.000000 0.000000
vt 1.000000 1.000000
vt 1.000000 0.000000
vt 1.000000 1.000000
vt 0.000000 1.000000
vt 1.000000 0.000000
vt 1.000000 1.000000
vt 0.000000 1.000000
vt 0.000000 0.000000
vt 1.000000 0.000000
vt 1.000000 1.000000
vt 0.000000 1.000000
vt 1.000000 0.000000
vt 0.811932 0.000000
vt 0.000000 1.000000
vt 0.197448 0.472394
vt 0.739440 0.481018
vt 1.000000 1.000000
vt 0.000000 1.000000
vt 0.718467 0.000000
vt 1.000000 0.000000
vt 0.196746 0.000000
vt 1.000000 0.000000
vt 1.000000 1.000000
vt 0.000000 0.000000
vt 1.000000 0.000000
vn -1.0000 -0.0000 -0.0000
vn 1.0000 0.0000 0.0000
vn -0.0000 0.0000 1.0000
vn 0.0000 -1.0000 0.0000
vn 0.8239 0.5668 -0.0000
vn -0.8239 -0.5668 -0.0000
vn 0.0000 1.0000 0.0000
vn 0.0000 0.0000 -1.0000
vn 0.5668 -0.8239 0.0000
vn -0.5668 0.8239 -0.0000
usemtl Material
s off
f 28/1/1 27/2/1 31/3/1 32/4/1
f 8/5/1 4/6/1 3/7/1 7/8/1
f 42/9/2 44/10/2 43/11/2 41/12/2
f 46/13/3 45/14/3 7/15/3 3/16/3
f 2/17/3 43/18/3 46/13/3 3/16/3
f 28/1/4 25/19/4 26/20/4 27/21/4
f 26/22/2 25/19/2 29/23/2 30/24/2
f 22/25/5 21/26/5 24/27/5 23/28/5
f 36/29/4 33/30/4 34/31/4 35/32/4
f 20/33/6 17/34/6 18/35/6 19/36/6
f 4/6/4 1/37/4 2/38/4 3/39/4
f 12/40/4 9/41/4 10/42/4 11/43/4
f 14/44/7 13/45/7 16/46/7 15/47/7
f 10/48/2 9/41/2 13/49/2 14/50/2
f 11/51/3 10/52/3 14/53/3 15/47/3
f 16/54/8 13/45/8 9/55/8 12/56/8
f 22/57/9 18/58/9 17/34/9 21/59/9
f 27/60/3 26/61/3 30/62/3 31/63/3
f 31/63/7 30/64/7 29/65/7 32/66/7
f 24/67/8 21/26/8 17/68/8 20/69/8
f 24/70/10 20/33/10 19/71/10 23/72/10
f 32/73/8 29/65/8 25/74/8 28/75/8
f 6/76/7 5/77/7 8/78/7 7/15/7
f 23/28/3 19/79/3 18/80/3 22/81/3
f 40/82/1 36/29/1 35/83/1 39/84/1
f 35/85/3 34/86/3 38/87/3 39/88/3
f 5/89/2 6/90/2 44/10/2 42/9/2
f 34/91/2 33/30/2 37/92/2 38/93/2
f 40/94/8 37/95/8 33/96/8 36/97/8
f 38/98/7 37/95/7 40/99/7 39/88/7
f 43/18/3 44/100/3 45/14/3 46/13/3
f 8/101/8 47/102/8 48/103/8 4/104/8
f 2/105/2 1/37/2 41/12/2 43/11/2
f 48/103/8 41/106/8 1/107/8 4/104/8
f 47/102/8 8/101/8 5/77/8 42/108/8
f 6/109/3 7/15/3 45/14/3 44/100/3
f 16/110/1 12/40/1 11/111/1 15/112/1
f 47/102/8 42/108/8 41/106/8 48/103/8
