# Blender v2.79 (sub 0) OBJ File: 'jumpbox.blend'
# www.blender.org
mtllib jumpbox.mtl
o Plane_Plane.002
v -0.500000 1.000000 -0.000000
v -0.500000 0.000000 0.000000
v 0.500000 1.000000 -0.000000
v 0.500000 0.000000 0.000000
v -0.251833 0.762479 -0.000000
v 0.274810 0.744280 -0.000000
v 0.213413 0.233516 0.000000
v -0.230551 0.271648 0.000000
v -0.177340 0.589546 -0.000000
v 0.069801 0.565271 -0.000000
v 0.041160 0.411856 0.000000
v -0.036588 0.404524 0.000000
v 0.000544 0.512084 -0.000000
v -0.115934 0.513666 -0.000000
v -0.115957 0.323285 0.000000
v 0.152022 0.309411 0.000000
v 0.176596 0.673799 -0.000000
v -0.288678 0.661020 -0.000000
vn 0.0000 0.0000 1.0000
usemtl red
s off
f 5//1 18//1 17//1 6//1
f 6//1 17//1 16//1 7//1
f 10//1 9//1 14//1 13//1
f 11//1 10//1 13//1 12//1
f 14//1 9//1 8//1 15//1
f 7//1 16//1 15//1 8//1
usemtl Material
f 18//1 5//1 1//1
f 6//1 3//1 1//1 5//1
f 8//1 9//1 18//1
f 9//1 10//1 17//1 18//1
f 16//1 17//1 10//1 11//1
f 2//1 8//1 18//1 1//1
f 11//1 12//1 15//1 16//1
f 7//1 8//1 2//1 4//1
f 4//1 3//1 6//1 7//1
f 14//1 15//1 12//1 13//1
