# Blender v2.79 (sub 0) OBJ File: 'testPlatform.blend'
# www.blender.org
mtllib testPlatform1.mtl
o Cube.003
v 1.500000 0.000000 0.000000
v 2.500000 -1.000000 0.000000
v 2.500000 0.000000 0.000000
v 1.614594 -0.265126 0.000000
v 1.500000 -1.000000 0.000000
v 2.500000 -0.252879 0.000000
v 1.500000 -0.252879 0.000000
v 2.396848 -0.202629 -0.000000
v 2.298344 -0.247065 -0.000000
v 2.113828 -0.156013 0.000000
vn 0.0000 0.0000 1.0000
usemtl Material.001
s off
f 4//1 1//1 7//1
f 10//1 9//1 8//1
f 8//1 6//1 3//1
f 10//1 3//1 1//1
f 4//1 10//1 1//1
f 10//1 8//1 3//1
usemtl Material.002
f 2//1 6//1 9//1
f 6//1 8//1 9//1
f 9//1 10//1 4//1
f 4//1 7//1 5//1
f 5//1 2//1 9//1 4//1
o Cube.002
v -1.500000 0.000000 0.000000
v -0.500000 -1.000000 0.000000
v -0.500000 0.000000 0.000000
v -1.385406 -0.265126 0.000000
v -1.500000 -1.000000 0.000000
v -0.500000 -0.252879 0.000000
v -1.500000 -0.252879 0.000000
v -0.603152 -0.202629 -0.000000
v -0.701656 -0.247065 -0.000000
v -0.886172 -0.156013 0.000000
vn 0.0000 0.0000 1.0000
usemtl Material.001
s off
f 14//2 11//2 17//2
f 20//2 19//2 18//2
f 18//2 16//2 13//2
f 20//2 13//2 11//2
f 14//2 20//2 11//2
f 20//2 18//2 13//2
usemtl Material.002
f 12//2 16//2 19//2
f 16//2 18//2 19//2
f 19//2 20//2 14//2
f 14//2 17//2 15//2
f 15//2 12//2 19//2 14//2
o Cube.001
v 0.500000 0.000000 0.000000
v 1.500000 -1.000000 0.000000
v 1.500000 0.000000 0.000000
v 0.614594 -0.265126 0.000000
v 0.500000 -1.000000 0.000000
v 1.500000 -0.252879 0.000000
v 0.500000 -0.252879 0.000000
v 1.396848 -0.202629 -0.000000
v 1.298344 -0.247065 -0.000000
v 1.113828 -0.156013 0.000000
vn 0.0000 0.0000 1.0000
usemtl Material.001
s off
f 24//3 21//3 27//3
f 30//3 29//3 28//3
f 28//3 26//3 23//3
f 30//3 23//3 21//3
f 24//3 30//3 21//3
f 30//3 28//3 23//3
usemtl Material.002
f 22//3 26//3 29//3
f 26//3 28//3 29//3
f 29//3 30//3 24//3
f 24//3 27//3 25//3
f 25//3 22//3 29//3 24//3
o Cube.000
v -0.500000 0.000000 0.000000
v 0.500000 -1.000000 0.000000
v 0.500000 0.000000 0.000000
v -0.385406 -0.265126 0.000000
v -0.500000 -1.000000 0.000000
v 0.500000 -0.252879 0.000000
v -0.500000 -0.252879 0.000000
v 0.396848 -0.202629 -0.000000
v 0.298344 -0.247065 -0.000000
v 0.113828 -0.156013 0.000000
vn 0.0000 0.0000 1.0000
usemtl Material.001
s off
f 34//4 31//4 37//4
f 40//4 39//4 38//4
f 38//4 36//4 33//4
f 40//4 33//4 31//4
f 34//4 40//4 31//4
f 40//4 38//4 33//4
usemtl Material.002
f 32//4 36//4 39//4
f 36//4 38//4 39//4
f 39//4 40//4 34//4
f 34//4 37//4 35//4
f 35//4 32//4 39//4 34//4
