# Blender v2.79 (sub 0) OBJ File: 'testPlatform3.blend'
# www.blender.org
mtllib testPlatform3.mtl
o cube.004_ground.002
v 7.500000 -1.000000 0.000000
v 8.500000 -1.000000 0.000000
v 8.113828 -0.156013 0.000000
v 7.500000 0.000000 0.000000
v 8.500000 0.000000 0.000000
v 8.500000 -0.252879 0.000000
v 7.500000 -0.252879 0.000000
v 8.396848 -0.202629 -0.000000
v 8.298345 -0.247065 -0.000000
v 7.614594 -0.265126 0.000000
vn -0.0000 -0.0000 1.0000
usemtl Material.001
s off
f 10//1 3//1 4//1 7//1
f 3//1 9//1 8//1
f 8//1 6//1 5//1
f 4//1 3//1 8//1 5//1
usemtl Material.002
f 2//1 6//1 9//1
f 6//1 8//1 9//1
f 9//1 3//1 10//1
f 10//1 7//1 1//1
f 9//1 10//1 1//1 2//1
o cube.003_ground.001
v 6.500000 -1.000000 0.000000
v 7.500000 -1.000000 0.000000
v 7.113828 -0.156013 0.000000
v 6.500000 0.000000 0.000000
v 7.500000 0.000000 0.000000
v 7.500000 -0.252879 0.000000
v 6.500000 -0.252879 0.000000
v 7.396848 -0.202629 -0.000000
v 7.298345 -0.247065 -0.000000
v 6.614594 -0.265126 0.000000
vn -0.0000 -0.0000 1.0000
usemtl Material.001
s off
f 20//2 13//2 14//2 17//2
f 13//2 19//2 18//2
f 18//2 16//2 15//2
f 14//2 13//2 18//2 15//2
usemtl Material.002
f 12//2 16//2 19//2
f 16//2 18//2 19//2
f 19//2 13//2 20//2
f 20//2 17//2 11//2
f 19//2 20//2 11//2 12//2
o cube.018_ground.010
v 4.500000 0.000000 0.000000
v 5.113434 0.265934 0.000000
v 4.500000 1.000000 0.000000
v 4.500000 0.747121 0.000000
v 5.500000 0.000000 0.000000
v 4.828644 0.501675 -0.000000
v 4.944522 0.150764 -0.000000
v 5.181629 0.118108 0.000000
vn -0.0000 -0.0000 1.0000
usemtl Material.001
s off
f 28//3 25//3 22//3
f 22//3 26//3 27//3
f 26//3 23//3 24//3
f 25//3 23//3 26//3 22//3
usemtl Material.002
f 21//3 27//3 24//3
f 24//3 27//3 26//3
f 27//3 28//3 22//3
f 27//3 21//3 25//3 28//3
o cube.017_ground.009
v 4.500000 -1.000000 0.000000
v 5.500000 -1.000000 0.000000
v 5.113828 -0.156013 0.000000
v 4.500000 0.000000 0.000000
v 5.500000 0.000000 0.000000
v 5.500000 -0.252879 0.000000
v 4.500000 -0.252879 0.000000
v 5.396848 -0.202629 -0.000000
v 5.298345 -0.247065 -0.000000
v 4.614594 -0.265126 0.000000
vn -0.0000 -0.0000 1.0000
usemtl Material.001
s off
f 38//4 31//4 32//4 35//4
f 31//4 37//4 36//4
f 36//4 34//4 33//4
f 32//4 31//4 36//4 33//4
usemtl Material.002
f 30//4 34//4 37//4
f 34//4 36//4 37//4
f 37//4 31//4 38//4
f 38//4 35//4 29//4
f 37//4 38//4 29//4 30//4
o cube.016_ground.008
v 5.500000 -1.000000 0.000000
v 6.500000 -1.000000 0.000000
v 6.113828 -0.156013 0.000000
v 5.500000 0.000000 0.000000
v 6.500000 0.000000 0.000000
v 6.500000 -0.252879 0.000000
v 5.500000 -0.252879 0.000000
v 6.396848 -0.202629 -0.000000
v 6.298345 -0.247065 -0.000000
v 5.614594 -0.265126 0.000000
vn -0.0000 -0.0000 1.0000
usemtl Material.001
s off
f 48//5 41//5 42//5 45//5
f 41//5 47//5 46//5
f 46//5 44//5 43//5
f 42//5 41//5 46//5 43//5
usemtl Material.002
f 40//5 44//5 47//5
f 44//5 46//5 47//5
f 47//5 41//5 48//5
f 48//5 45//5 39//5
f 47//5 48//5 39//5 40//5
o cube.015_ground.007
v 3.500000 0.000000 0.000000
v 4.500000 0.000000 0.000000
v 4.113828 0.843987 0.000000
v 3.500000 1.000000 0.000000
v 4.500000 1.000000 0.000000
v 4.500000 0.747121 0.000000
v 3.500000 0.747121 0.000000
v 4.396848 0.797371 -0.000000
v 4.298345 0.752935 -0.000000
v 3.614594 0.734874 0.000000
vn -0.0000 -0.0000 1.0000
usemtl Material.001
s off
f 58//6 51//6 52//6 55//6
f 51//6 57//6 56//6
f 56//6 54//6 53//6
f 52//6 51//6 56//6 53//6
usemtl Material.002
f 50//6 54//6 57//6
f 54//6 56//6 57//6
f 57//6 51//6 58//6
f 58//6 55//6 49//6
f 57//6 58//6 49//6 50//6
o cube.014_ground.006
v 2.500000 0.000000 0.000000
v 3.500000 0.000000 0.000000
v 3.113828 0.733323 0.000000
v 2.500000 0.500000 0.000000
v 3.500000 1.000000 0.000000
v 3.500000 0.747121 0.000000
v 2.500000 0.296560 0.000000
v 3.396848 0.797371 -0.000000
v 3.298344 0.610652 -0.000000
v 2.614594 0.335692 0.000000
vn -0.0000 -0.0000 1.0000
usemtl Material.001
s off
f 68//7 61//7 62//7 65//7
f 61//7 67//7 66//7
f 66//7 64//7 63//7
f 62//7 61//7 66//7 63//7
usemtl Material.002
f 60//7 64//7 67//7
f 64//7 66//7 67//7
f 67//7 61//7 68//7
f 68//7 65//7 59//7
f 67//7 68//7 59//7 60//7
o cube.013_ground.005
v 2.500000 0.000000 0.000000
v 1.886566 0.139460 0.000000
v 2.500000 0.500000 0.000000
v 2.500000 0.296560 0.000000
v 1.500000 0.000000 0.000000
v 2.171356 0.213158 -0.000000
v 2.055478 0.083575 -0.000000
v 1.818371 0.046966 0.000000
vn 0.0000 -0.0000 1.0000
usemtl Material.001
s off
f 76//8 70//8 73//8
f 70//8 75//8 74//8
f 74//8 72//8 71//8
f 73//8 70//8 74//8 71//8
usemtl Material.002
f 69//8 72//8 75//8
f 72//8 74//8 75//8
f 75//8 70//8 76//8
f 75//8 76//8 73//8 69//8
o cube.012_ground.004
v 2.500000 -1.000000 0.000000
v 3.500000 -1.000000 0.000000
v 3.113828 -0.156013 0.000000
v 2.500000 0.000000 0.000000
v 3.500000 0.000000 0.000000
v 3.500000 -0.252879 0.000000
v 2.500000 -0.252879 0.000000
v 3.396848 -0.202629 -0.000000
v 3.298344 -0.247065 -0.000000
v 2.614594 -0.265126 0.000000
vn -0.0000 -0.0000 1.0000
usemtl Material.001
s off
f 86//9 79//9 80//9 83//9
f 79//9 85//9 84//9
f 84//9 82//9 81//9
f 80//9 79//9 84//9 81//9
usemtl Material.002
f 78//9 82//9 85//9
f 82//9 84//9 85//9
f 85//9 79//9 86//9
f 86//9 83//9 77//9
f 85//9 86//9 77//9 78//9
o cube.011_ground.004
v 3.500000 -1.000000 0.000000
v 4.500000 -1.000000 0.000000
v 4.113828 -0.156013 0.000000
v 3.500000 0.000000 0.000000
v 4.500000 0.000000 0.000000
v 4.500000 -0.252879 0.000000
v 3.500000 -0.252879 0.000000
v 4.396848 -0.202629 -0.000000
v 4.298345 -0.247065 -0.000000
v 3.614594 -0.265126 0.000000
vn -0.0000 -0.0000 1.0000
usemtl Material.001
s off
f 96//10 89//10 90//10 93//10
f 89//10 95//10 94//10
f 94//10 92//10 91//10
f 90//10 89//10 94//10 91//10
usemtl Material.002
f 88//10 92//10 95//10
f 92//10 94//10 95//10
f 95//10 89//10 96//10
f 96//10 93//10 87//10
f 95//10 96//10 87//10 88//10
o cube.010_ground.004
v 1.500000 -1.000000 0.000000
v 2.500000 -1.000000 0.000000
v 2.113828 -0.156013 0.000000
v 1.500000 0.000000 0.000000
v 2.500000 0.000000 0.000000
v 2.500000 -0.252879 0.000000
v 1.500000 -0.252879 0.000000
v 2.396848 -0.202629 -0.000000
v 2.298344 -0.247065 -0.000000
v 1.614594 -0.265126 0.000000
vn -0.0000 -0.0000 1.0000
usemtl Material.001
s off
f 106//11 99//11 100//11 103//11
f 99//11 105//11 104//11
f 104//11 102//11 101//11
f 100//11 99//11 104//11 101//11
usemtl Material.002
f 98//11 102//11 105//11
f 102//11 104//11 105//11
f 105//11 99//11 106//11
f 106//11 103//11 97//11
f 105//11 106//11 97//11 98//11
o cube.001_ground
v -1.500000 -1.000000 0.000000
v -0.500000 -1.000000 0.000000
v -0.886172 -0.156013 0.000000
v -1.500000 0.000000 0.000000
v -0.500000 0.000000 0.000000
v -0.500000 -0.252879 0.000000
v -1.500000 -0.252879 0.000000
v -0.603152 -0.202629 -0.000000
v -0.701656 -0.247065 -0.000000
v -1.385406 -0.265126 0.000000
vn -0.0000 -0.0000 1.0000
usemtl Material.001
s off
f 116//12 109//12 110//12 113//12
f 109//12 115//12 114//12
f 114//12 112//12 111//12
f 110//12 109//12 114//12 111//12
usemtl Material.002
f 108//12 112//12 115//12
f 112//12 114//12 115//12
f 115//12 109//12 116//12
f 116//12 113//12 107//12
f 115//12 116//12 107//12 108//12
o cube.000_ground
v 0.500000 -1.000000 0.000000
v 1.500000 -1.000000 0.000000
v 1.113828 -0.156013 0.000000
v 0.500000 0.000000 0.000000
v 1.500000 0.000000 0.000000
v 1.500000 -0.252879 0.000000
v 0.500000 -0.252879 0.000000
v 1.396848 -0.202629 -0.000000
v 1.298344 -0.247065 -0.000000
v 0.614595 -0.265126 0.000000
vn -0.0000 -0.0000 1.0000
usemtl Material.001
s off
f 126//13 119//13 120//13 123//13
f 119//13 125//13 124//13
f 124//13 122//13 121//13
f 120//13 119//13 124//13 121//13
usemtl Material.002
f 118//13 122//13 125//13
f 122//13 124//13 125//13
f 125//13 119//13 126//13
f 126//13 123//13 117//13
f 125//13 126//13 117//13 118//13
o cube.002_ground
v -0.500000 -1.000000 0.000000
v 0.500000 -1.000000 0.000000
v 0.113828 -0.156013 0.000000
v -0.500000 0.000000 0.000000
v 0.500000 0.000000 0.000000
v 0.500000 -0.252879 0.000000
v -0.500000 -0.252879 0.000000
v 0.396848 -0.202629 -0.000000
v 0.298344 -0.247065 -0.000000
v -0.385405 -0.265126 0.000000
vn -0.0000 -0.0000 1.0000
usemtl Material.001
s off
f 136//14 129//14 130//14 133//14
f 129//14 135//14 134//14
f 134//14 132//14 131//14
f 130//14 129//14 134//14 131//14
usemtl Material.002
f 128//14 132//14 135//14
f 132//14 134//14 135//14
f 135//14 129//14 136//14
f 136//14 133//14 127//14
f 135//14 136//14 127//14 128//14
